<svg xmlns="http://www.w3.org/2000/svg" viewBox="0 0 220 220">
  <g fill="none" stroke="#c9bfa6" stroke-width="5" stroke-linecap="round" stroke-opacity="0.55">
    <path d="M -10 40 C 30 10, 60 70, 100 40 S 170 10, 210 40 S 260 10, 300 40" />
    <path d="M -10 100 C 30 70, 60 130, 100 100 S 170 70, 210 100 S 260 70, 300 100" />
    <path d="M -10 160 C 30 130, 60 190, 100 160 S 170 130, 210 160 S 260 130, 300 160" />
    <path d="M 40 -10 C 10 30, 70 60, 40 100 S 10 170, 40 210 S 10 260, 40 300" />
    <path d="M 100 -10 C 70 30, 130 60, 100 100 S 70 170, 100 210 S 70 260, 100 300" />
    <path d="M 160 -10 C 130 30, 190 60, 160 100 S 130 170, 160 210 S 130 260, 160 300" />
  </g>
</svg>
